<?xml version="1.0"?>
<svg xmlns="http://www.w3.org/2000/svg" xmlns:xlink="http://www.w3.org/1999/xlink" xmlns:svgjs="http://svgjs.com/svgjs" version="1.1" width="512" height="512" x="0" y="0" viewBox="0 0 783.301 783.301" style="enable-background:new 0 0 512 512" xml:space="preserve" class=""><g>
<g xmlns="http://www.w3.org/2000/svg">
	<g>
		<g>
			<path d="M546.9,774.1c-109.7,0-199-89.299-199-199c0-109.699,89.3-199,199-199s199,89.3,199,199     C745.9,684.801,656.601,774.1,546.9,774.1z M546.9,416.1c-87.7,0-159,71.301-159,159c0,87.701,71.3,159,159,159     s159-71.299,159-159C705.9,487.4,634.601,416.1,546.9,416.1z" fill="#2f2e41" data-original="#000000" style="" class=""/>
		</g>
		<path d="M638.2,567.1h-77.8v-105c0-8.299-6.7-15-15-15s-15,6.701-15,15v113.4c0,4.5,0,4.801,0,6.5c0,8.301,5.2,15.1,13.5,15.1    h94.3c8.3,0,15-6.699,15-15C653.2,573.801,646.5,567.1,638.2,567.1z" fill="#2f2e41" data-original="#000000" style="" class=""/>
	</g>
	<g>
		<circle cx="186.5" cy="89" r="89" fill="#2f2e41" data-original="#000000" style="" class=""/>
		<path d="M476.9,191.1h-191.3h-1.7h-35l-2.8,17.3l-8.3,51.9l-10.1,62.9h-12.6h-0.7l-8.5-96.7l10-35.4h-58.7l10,35.4l-8.5,96.7H158    h-12.6l-8-49.7l-10-62.5l-3.2-19.9H87.4h-0.1l0,0c-27.6,0.1-49.9,22.4-49.9,50v213c0,27.6,22.4,50,50,50v229.201    c0,27.6,22.4,50,50,50c24.4,0,44.7-17.5,49.1-40.602c4.4,23.102,24.7,40.602,49.1,40.602c27.6,0,50-22.4,50-50V479.1V390.3v-99.2    h191.3c27.6,0,50-22.4,50-50C526.9,213.4,504.5,191.1,476.9,191.1z" fill="#2f2e41" data-original="#000000" style="" class=""/>
	</g>
</g>
<g xmlns="http://www.w3.org/2000/svg">
</g>
<g xmlns="http://www.w3.org/2000/svg">
</g>
<g xmlns="http://www.w3.org/2000/svg">
</g>
<g xmlns="http://www.w3.org/2000/svg">
</g>
<g xmlns="http://www.w3.org/2000/svg">
</g>
<g xmlns="http://www.w3.org/2000/svg">
</g>
<g xmlns="http://www.w3.org/2000/svg">
</g>
<g xmlns="http://www.w3.org/2000/svg">
</g>
<g xmlns="http://www.w3.org/2000/svg">
</g>
<g xmlns="http://www.w3.org/2000/svg">
</g>
<g xmlns="http://www.w3.org/2000/svg">
</g>
<g xmlns="http://www.w3.org/2000/svg">
</g>
<g xmlns="http://www.w3.org/2000/svg">
</g>
<g xmlns="http://www.w3.org/2000/svg">
</g>
<g xmlns="http://www.w3.org/2000/svg">
</g>
</g></svg>
